<?xml version="1.0" encoding="utf-8"?>
<!-- Generator: Adobe Illustrator 24.2.3, SVG Export Plug-In . SVG Version: 6.00 Build 0)  -->
<svg version="1.1" id="logo-aya-sasakura" xmlns="http://www.w3.org/2000/svg" xmlns:xlink="http://www.w3.org/1999/xlink" x="0px"
	 y="0px" viewBox="0 0 48 45" style="enable-background:new 0 0 48 45;" xml:space="preserve">
<style type="text/css">
	.st0{fill:#E8CDB6;}
</style>
<path class="st0" d="M16.3,15.8C8.9,16,9.3,11.4,9.2,6C8.5,6.1,7.7,6.2,7,6.4c-2.1,0.5-3.7,2.3-4,4.5c-0.3,1.9-0.4,3.7-0.6,5.6
	c-0.3,4-0.5,7.9-0.6,11.9s-0.2,8-0.1,12c0.1,1.3,0,2.6-0.2,3.9c-0.2,0.5-0.6,1-1,0.4c-0.7-1-0.5-5.5-0.5-6.6c-0.1-8,0.1-16,0.8-23.9
	c0.4-4,0.3-8.3,5.5-9.5c2.5-0.6,9.4-0.8,11.9-0.8c0-0.8,0-1.6,0.1-2.5c0.1-0.5,0-1.1,0.6-1.4c0.2-0.1,0.3,0,0.4,0.1
	c0.6,0.6,0.5,3.1,0.5,3.7c2.6,0,5.2,0.1,7.8,0.3c2.6,0.2,5.1,0,7.4,2.1c1.9,1.8,2,5.1,2.3,7.3c0.3,2.6,0.4,4.8,0.7,7.4
	c0.5,4.4,1.2,8.8,2.3,13.1c0.4,1.3,1,2.6,1.7,3.7c0.7,1.2,1.7,2.2,2.8,2.9l0.3,0.2c0.2,0.1,0.4,0.2,0.6,0.3c0.3,0.1,0.5,0.2,0.8,0.3
	s0.5,0.1,0.8,0.2c0.1,0,0.2,0,0.3,0.1c0.1,0,0.2,0.1,0.3,0.2c0.1,0.1,0.1,0.3,0,0.4c-0.3,0.4-1.1,0.6-1.8,0.5
	c-0.4,0-0.7-0.1-1.1-0.2c-0.5-0.1-1-0.3-1.5-0.6c-0.7-0.4-1.2-0.9-1.7-1.5c-0.5-0.5-0.9-1.1-1.3-1.8c-0.7-1.2-1.2-2.5-1.6-3.8
	c-0.9-2.7-1.5-5.5-1.9-8.3c-0.4-2.7-0.7-5.8-1.2-9.3c-0.1-2.4-0.4-4.8-0.8-7.1c-0.6-3.1-3.2-4-6-4.4c-0.2,1.7-0.1,3.2-0.4,4.7
	c-0.4,4.3-2.8,5.3-6.7,5.3l0.1,0.4c8.5,2,8.6,13.8,9.3,20.6c0.1,0.9,0.8,7.1-0.4,7.9c-0.7,0.4-0.9-0.7-1-1.2
	c-0.1-1.3-0.2-2.6-0.1-3.9c-0.2-3.9-0.6-7.7-1.1-11.5c-1-5.5-2.8-10.7-9.5-10.9c-6.9,0.2-8.7,5.8-9.6,11.6c-0.7,4.7-1,9.4-1.1,14.1
	c0,0.4,0,1.7-0.8,1.7c-0.1,0-0.3,0-0.3-0.2C5.8,42.8,7.7,30,7.9,28.5C8.6,23.9,10.4,17,16.3,16V15.8z M11.3,10.8
	c0.1,1.7,1.4,3.1,3,3.5c2,0.2,4,0.2,6.1,0.2c1.3,0,4.6,0.1,5.8-1.2c1.1-1.2,1.2-6.1,1.3-7.5c-5.4-0.5-10.9-0.5-16.4,0
	C11,7.5,11.1,9.1,11.3,10.8"/>
</svg>
